<?xml version="1.0" encoding="utf-8"?>
<!-- Generator: Adobe Illustrator 20.0.0, SVG Export Plug-In . SVG Version: 6.00 Build 0)  -->
<svg version="1.1" id="Layer_1" xmlns="http://www.w3.org/2000/svg" xmlns:xlink="http://www.w3.org/1999/xlink" x="0px" y="0px"
	 viewBox="0 0 29.5 13" style="enable-background:new 0 0 29.5 13;" xml:space="preserve">
<g>
	<path d="M0.9,2h1v7.2h3.5V10H0.9V2z"/>
	<path d="M13,5.9c0,2.8-1.7,4.3-3.8,4.3c-2.1,0-3.6-1.7-3.6-4.1c0-2.6,1.6-4.2,3.8-4.2C11.6,1.8,13,3.5,13,5.9z M6.7,6.1
		c0,1.7,0.9,3.3,2.6,3.3c1.7,0,2.6-1.5,2.6-3.4c0-1.6-0.8-3.3-2.6-3.3C7.6,2.7,6.7,4.3,6.7,6.1z"/>
	<path d="M20.5,9.7c-0.5,0.2-1.4,0.4-2.5,0.4c-1.2,0-2.2-0.3-3-1.1c-0.7-0.7-1.1-1.8-1.1-3c0-2.4,1.7-4.2,4.4-4.2
		c0.9,0,1.7,0.2,2,0.4L20,3.1c-0.4-0.2-1-0.3-1.8-0.3C16.3,2.8,15,4,15,6c0,2.1,1.2,3.3,3.1,3.3c0.7,0,1.2-0.1,1.4-0.2V6.6h-1.6V5.8
		h2.7V9.7z"/>
	<path d="M29,5.9c0,2.8-1.7,4.3-3.8,4.3c-2.1,0-3.6-1.7-3.6-4.1c0-2.6,1.6-4.2,3.8-4.2C27.6,1.8,29,3.5,29,5.9z M22.8,6.1
		c0,1.7,0.9,3.3,2.6,3.3c1.7,0,2.6-1.5,2.6-3.4c0-1.6-0.8-3.3-2.6-3.3C23.6,2.7,22.8,4.3,22.8,6.1z"/>
</g>
</svg>
